{
  "accessors": [
    {
      "bufferView": 2,
      "componentType": 5126,
      "count": 2184,
      "max": [
        2.8183701038360596,
        1.0902199745178223,
        1.0819000005722046
      ],
      "min": [
        -2.8183801174163818,
        -1.0902199745178223,
        -4.0859098434448242
      ],
      "type": "VEC3"
    },
    {
      "bufferView": 2,
      "byteOffset": 26208,
      "componentType": 5126,
      "count": 2184,
      "max": [
        0.99631798267364502,
        0.99961715936660767,
        0.99648779630661011
      ],
      "min": [
        -0.99631798267364502,
        -0.99961715936660767,
        -0.99838060140609741
      ],
      "type": "VEC3"
    },
    {
      "bufferView": 3,
      "componentType": 5126,
      "count": 2184,
      "max": [
        0.99999487400054932,
        0.99964320659637451,
        0.21971558034420013,
        1
      ],
      "min": [
        -0.17800725996494293,
        -0.9992101788520813,
        -0.2184772789478302,
        -1
      ],
      "type": "VEC4"
    },
    {
      "bufferView": 1,
      "componentType": 5126,
      "count": 2184,
      "max": [
        0.96821999549865723,
        0.93128997087478638
      ],
      "min": [
        0.034639999270439148,
        0.07401999831199646
      ],
      "type": "VEC2"
    },
    {
      "bufferView": 0,
      "componentType": 5125,
      "count": 13104,
      "max": [
        2183
      ],
      "min": [
        0
      ],
      "type": "SCALAR"
    },
    {
      "bufferView": 2,
      "byteOffset": 52416,
      "componentType": 5126,
      "count": 2184,
      "max": [
        2.8681900501251221,
        1.1402000188827515,
        1.1317299604415894
      ],
      "min": [
        -2.8681900501251221,
        -1.1402000188827515,
        -4.1358199119567871
      ],
      "type": "VEC3"
    },
    {
      "bufferView": 2,
      "byteOffset": 78624,
      "componentType": 5126,
      "count": 2184,
      "max": [
        0.99633413553237915,
        0.99961882829666138,
        0.99836575984954834
      ],
      "min": [
        -0.99633413553237915,
        -0.99961966276168823,
        -0.99644148349761963
      ],
      "type": "VEC3"
    },
    {
      "bufferView": 3,
      "byteOffset": 34944,
      "componentType": 5126,
      "count": 2184,
      "max": [
        0.99999934434890747,
        0.99962663650512695,
        0.21865510940551758,
        1
      ],
      "min": [
        -0.1776309609413147,
        -0.99927306175231934,
        -0.21979361772537231,
        -1
      ],
      "type": "VEC4"
    },
    {
      "bufferView": 0,
      "byteOffset": 52416,
      "componentType": 5125,
      "count": 13104,
      "max": [
        2183
      ],
      "min": [
        0
      ],
      "type": "SCALAR"
    }
  ],
  "asset": {
    "extras": {
      "author": "ayvlasov (https://sketchfab.com/ayvlasov)",
      "license": "CC-BY-4.0 (http://creativecommons.org/licenses/by/4.0/)",
      "source": "https://sketchfab.com/models/f0a0bb31474748c8bb933a98656a60e2",
      "title": "Triplet Structure"
    },
    "generator": "Sketchfab-3.19.6",
    "version": "2.0"
  },
  "bufferViews": [
    {
      "buffer": 0,
      "byteLength": 104832,
      "byteOffset": 0,
      "name": "floatBufferViews",
      "target": 34963
    },
    {
      "buffer": 0,
      "byteLength": 17472,
      "byteOffset": 104832,
      "byteStride": 8,
      "name": "floatBufferViews",
      "target": 34962
    },
    {
      "buffer": 0,
      "byteLength": 104832,
      "byteOffset": 122304,
      "byteStride": 12,
      "name": "floatBufferViews",
      "target": 34962
    },
    {
      "buffer": 0,
      "byteLength": 69888,
      "byteOffset": 227136,
      "byteStride": 16,
      "name": "floatBufferViews",
      "target": 34962
    }
  ],
  "buffers": [
    {
      "byteLength": 297024,
      "uri": "scene.bin"
    }
  ],
  "images": [
    {
      "uri": "textures/MaterialTriplet_baseColor.png"
    },
    {
      "uri": "textures/MaterialTriplet_metallicRoughness.png"
    }
  ],
  "materials": [
    {
      "doubleSided": false,
      "emissiveFactor": [
        1,
        1,
        1
      ],
      "name": "MaterialTriplet.001",
      "pbrMetallicRoughness": {
        "baseColorFactor": [
          0.93098139759999998,
          0.87583208079999997,
          0.87583208079999997,
          1
        ],
        "metallicFactor": 0,
        "roughnessFactor": 1
      }
    },
    {
      "alphaMode": "BLEND",
      "doubleSided": true,
      "emissiveFactor": [
        0.0048529012599999996,
        0.0041372811599999998,
        0.28951943499999999
      ],
      "name": "MaterialTriplet",
      "pbrMetallicRoughness": {
        "baseColorFactor": [
          1,
          1,
          1,
          0.91000000000000003
        ],
        "baseColorTexture": {
          "index": 0,
          "texCoord": 0
        },
        "metallicFactor": 0.93000000000000005,
        "metallicRoughnessTexture": {
          "index": 1,
          "texCoord": 0
        },
        "roughnessFactor": 1
      }
    }
  ],
  "meshes": [
    {
      "name": "Triplet_0",
      "primitives": [
        {
          "attributes": {
            "NORMAL": 1,
            "POSITION": 0,
            "TANGENT": 2,
            "TEXCOORD_0": 3
          },
          "indices": 4,
          "material": 1,
          "mode": 4
        }
      ]
    },
    {
      "name": "Triplet.001_0",
      "primitives": [
        {
          "attributes": {
            "NORMAL": 6,
            "POSITION": 5,
            "TANGENT": 7
          },
          "indices": 8,
          "material": 0,
          "mode": 4
        }
      ]
    }
  ],
  "nodes": [
    {
      "children": [
        1
      ],
      "name": "RootNode (gltf orientation matrix)",
      "rotation": [
        -0.70710678118654746,
        -0,
        -0,
        0.70710678118654757
      ]
    },
    {
      "children": [
        2
      ],
      "name": "RootNode (model correction matrix)"
    },
    {
      "children": [
        3,
        5,
        7
      ],
      "name": "Root"
    },
    {
      "children": [
        4
      ],
      "matrix": [
        -0.29086000000000006,
        0.95517000000000007,
        -0.05519000000000001,
        0,
        -0.77110000000000001,
        -0.19988000000000003,
        0.60452000000000006,
        0,
        0.56639000000000006,
        0.21839000000000003,
        0.7946700000000001,
        0,
        4.0762500000000008,
        1.00545,
        5.9038600000000008,
        1
      ],
      "name": "Lamp"
    },
    {
      "name": "Lamp"
    },
    {
      "children": [
        6
      ],
      "matrix": [
        1,
        0,
        0,
        0,
        0,
        1,
        0,
        0,
        0,
        0,
        1,
        0,
        0,
        0,
        2,
        1
      ],
      "name": "Triplet"
    },
    {
      "mesh": 0,
      "name": "Triplet_0"
    },
    {
      "children": [
        8
      ],
      "matrix": [
        1,
        0,
        0,
        0,
        0,
        1,
        0,
        0,
        0,
        0,
        1,
        0,
        0,
        0,
        2,
        1
      ],
      "name": "Triplet.001"
    },
    {
      "mesh": 1,
      "name": "Triplet.001_0"
    }
  ],
  "samplers": [
    {
      "magFilter": 9729,
      "minFilter": 9987,
      "wrapS": 10497,
      "wrapT": 10497
    }
  ],
  "scene": 0,
  "scenes": [
    {
      "name": "OSG_Scene",
      "nodes": [
        0
      ]
    }
  ],
  "textures": [
    {
      "sampler": 0,
      "source": 0
    },
    {
      "sampler": 0,
      "source": 1
    }
  ]
}

